PathFileType  4	(X/Y/Z) C:\Users\antoi\Documents\MyRepositories\mobilecap\ResultsAnalysis
DataRate	CameraRate	NumFrames	NumMarkers	Units	OrigDataRate	OrigDataStartFrame	OrigNumFrames
100.0	100.0	6	51	mm	100.0	145	231
Frame#	Time	r_knee			r_shank_antsup			r_ankle			r_calc			r_5meta			r_toe			L_knee			L_shank_antsup			L_ankle			L_calc			L_5meta			L_toe			r_sh2			r_sh3			r_sh4			L_sh2			L_sh3			r_thigh1			r_thigh2			r_thigh3			r_thigh4			r_thigh5			L_thigh1			L_thigh2			L_thigh3			L_thigh4			r.ASIS			r.PSIS			L.ASIS			L.PSIS			C7			R_Shoulder			L_Shoulder			R_Sternum			L_Sternum			R_humerus			R_elbow_med			R_elbow_lat			R_forearm			R_wrist_radius			R_wrist_ulna			L_humerus			L_elbow_med			L_elbow_lat			L_forearm			L_wrist_radius			L_wrist_ulna			R_HJC			L_HJC			R_HJC_reg			L_HJC_reg			
		X1	Y1	Z1	X2	Y2	Z2	X3	Y3	Z3	X4	Y4	Z4	X5	Y5	Z5	X6	Y6	Z6	X7	Y7	Z7	X8	Y8	Z8	X9	Y9	Z9	X10	Y10	Z10	X11	Y11	Z11	X12	Y12	Z12	X13	Y13	Z13	X14	Y14	Z14	X15	Y15	Z15	X16	Y16	Z16	X17	Y17	Z17	X18	Y18	Z18	X19	Y19	Z19	X20	Y20	Z20	X21	Y21	Z21	X22	Y22	Z22	X23	Y23	Z23	X24	Y24	Z24	X25	Y25	Z25	X26	Y26	Z26	X27	Y27	Z27	X28	Y28	Z28	X29	Y29	Z29	X30	Y30	Z30	X31	Y31	Z31	X32	Y32	Z32	X33	Y33	Z33	X34	Y34	Z34	X35	Y35	Z35	X36	Y36	Z36	X37	Y37	Z37	X38	Y38	Z38	X39	Y39	Z39	X40	Y40	Z40	X41	Y41	Z41	X42	Y42	Z42	X43	Y43	Z43	X44	Y44	Z44	X45	Y45	Z45	X46	Y46	Z46	X47	Y47	Z47	X48	Y48	Z48	X49	Y49	Z49	X50	Y50	Z50	X51	Y51	Z51	

145	1.44000000	9.71503	439.52930	-436.18805	13.17353	330.60449	-448.17414	-266.80218	136.60384	-460.57044	-367.80403	100.25898	-510.32108	-182.78055	51.77335	-409.17163	-116.13628	68.85479	-469.48268	7.06780	448.70728	-794.16189	-10.90000	366.90509	-812.34068	-244.55903	126.09809	-761.26476	-342.69350	81.40984	-701.25709	-155.16386	49.95022	-795.06674	-90.13804	69.45056	-733.80747	-69.48330	254.30250	-427.38186	-22.83746	380.94846	-406.22881	-118.19417	314.92738	-395.70610	-81.13687	422.63819	-809.45816	-147.09011	320.13611	-802.12714	-157.85698	713.98789	-432.98167	-75.78247	644.99331	-438.00769	-90.79112	589.75747	-399.49354	-228.43398	627.68347	-426.96277	-135.67228	559.69457	-419.80923	-136.42328	700.17638	-795.01113	-25.99984	612.57612	-789.05574	-202.21770	615.51472	-820.51407	-97.67075	526.98040	-815.98872	-202.85084	835.45408	-495.22822	-384.72177	869.03819	-557.38817	-213.90856	824.53309	-740.60451	-393.40340	866.76001	-667.28484	-77.41942	1334.00395	-631.99337	-17.35174	1272.33428	-478.27133	-27.48291	1269.70034	-786.96867	20.99692	1212.67985	-599.84355	19.72974	1209.42500	-657.95940	23.74379	1199.32232	-356.00583	56.05333	1020.60432	-244.51383	42.59322	1096.95196	-196.90069	191.57282	1157.52226	-254.10244	250.20762	1195.64689	-311.30854	271.15598	1175.39666	-276.07446	-2.85731	1199.17487	-893.38535	103.18308	974.25850	-931.97808	115.79967	1036.67693	-991.32700	183.28640	1070.45577	-963.71438	325.91006	1113.59531	-876.64490	347.21416	1083.67954	-897.82404	-298.26132	729.73669	-505.73432	-311.00442	727.95100	-712.29550	-270.81093	759.40504	-522.79083	-283.58649	756.05302	-684.52549	
146	1.45000000	4.20151	446.26649	-437.35943	9.19873	337.21484	-449.40224	-266.62731	137.38046	-459.67433	-367.61814	101.34260	-509.27637	-182.52585	51.64629	-408.94865	-115.98576	68.89481	-469.25253	0.24257	455.12330	-796.44055	-16.83088	372.44451	-814.81942	-244.44016	126.74924	-762.07499	-342.26906	82.57998	-701.59980	-155.03264	49.85755	-795.13815	-89.83085	69.42868	-734.08949	-71.29878	258.81998	-427.86771	-27.75949	386.43823	-407.10349	-120.81455	318.53177	-395.49999	-88.35760	426.25834	-810.76049	-151.70904	322.24197	-802.80415	-152.73241	727.73730	-432.85413	-73.96561	655.63922	-438.04531	-91.03237	601.07566	-399.80499	-226.82298	644.58828	-426.78956	-136.94783	572.78750	-420.12849	-134.92166	713.06596	-796.24938	-27.84817	621.30887	-791.43904	-204.10766	630.88615	-820.71001	-103.14595	538.13627	-816.73504	-196.58652	854.17890	-495.32864	-378.89951	889.15952	-556.31505	-209.69380	843.32929	-740.72721	-388.29358	886.76936	-666.03066	-77.96649	1356.71899	-632.81067	-18.19185	1299.33843	-479.80580	-26.81145	1294.80556	-785.60911	21.90671	1237.04656	-599.73541	21.25814	1233.51178	-658.21771	26.24785	1235.51734	-355.50844	70.89889	1065.27487	-235.95516	51.02699	1142.62152	-191.79953	193.08979	1212.75772	-253.83908	247.66389	1253.15488	-313.22141	270.52726	1236.20815	-277.97500	3.35269	1230.56006	-892.97716	124.28775	1015.44301	-937.02092	131.24841	1079.57808	-995.06043	194.39568	1118.40703	-964.40644	329.41373	1173.50479	-872.59000	354.16149	1146.50268	-893.74206	-292.94077	749.18617	-505.16828	-307.23641	747.42154	-711.62695	-265.53777	778.78970	-522.34051	-279.38540	775.26662	-684.06244	
147	1.46000000	-2.28825	454.12079	-438.18037	4.56953	345.18830	-449.69285	-266.03499	138.73216	-459.24741	-366.87298	103.41703	-508.75699	-182.12856	51.80722	-408.73264	-115.53645	68.98565	-469.08308	-6.96162	462.26081	-798.78634	-23.95804	379.32482	-817.16600	-244.06160	128.09298	-762.24963	-341.49091	84.61725	-701.55917	-154.83617	49.91877	-795.12354	-89.35082	69.35717	-734.25401	-73.93424	264.88856	-427.79823	-33.72856	393.60822	-407.29850	-124.43364	323.80451	-395.31974	-96.78784	431.29634	-811.51156	-157.28030	325.66370	-802.97006	-147.47027	742.81730	-433.13285	-72.00772	667.21106	-438.15454	-91.24764	613.01281	-400.79249	-225.17272	662.75378	-426.51739	-138.46018	587.18362	-420.07707	-133.34265	726.41987	-797.86847	-29.96678	630.48184	-794.06181	-206.02389	646.96555	-820.79145	-108.85532	550.16361	-817.64403	-189.86771	873.91330	-495.64422	-372.55950	910.35679	-555.44595	-205.05554	863.54962	-741.36342	-382.65468	907.67074	-664.82195	-78.71276	1380.75849	-633.53380	-19.43562	1327.95257	-481.41243	-26.26402	1321.71542	-784.20432	22.75779	1263.16098	-599.00339	22.53766	1258.84130	-658.50802	27.66639	1272.96754	-355.76277	84.41410	1111.76755	-228.36974	58.22140	1189.61715	-188.06336	193.33727	1267.66149	-254.74585	244.33503	1309.54147	-316.50517	268.25959	1295.85863	-280.29783	8.32254	1263.50274	-891.84140	143.15894	1058.41684	-940.39962	144.87457	1124.25626	-996.79707	203.17328	1167.54382	-964.18078	329.65282	1232.94297	-867.79076	357.31543	1209.27711	-888.91991	-286.94157	769.59589	-505.00081	-302.90170	768.11096	-711.33879	-259.86428	799.53730	-522.02676	-274.80863	795.56054	-683.91779	
148	1.47000000	-9.55846	463.59983	-438.17011	-0.56350	354.90619	-449.03567	-264.90672	140.92976	-459.13670	-365.58537	106.69241	-508.74819	-181.58790	52.33083	-408.62534	-114.78429	69.02775	-468.97161	-15.23096	470.70699	-800.89919	-31.70651	387.33086	-819.22274	-243.27485	130.13035	-761.99492	-340.37490	87.61979	-701.27305	-154.53732	50.17810	-795.05170	-88.69577	69.18573	-734.29661	-77.11944	272.80410	-426.94948	-40.45287	402.76389	-407.02087	-128.67939	331.06721	-394.77109	-105.69430	437.74739	-812.15542	-163.34191	330.37070	-802.83458	-142.21194	759.06170	-433.51489	-70.03300	679.89462	-438.25389	-91.58284	626.26074	-401.39573	-223.32323	682.22072	-426.17967	-140.06883	602.91458	-419.96830	-131.44826	740.29413	-799.85821	-32.13636	640.18733	-796.82268	-207.77529	663.79031	-820.92538	-114.61375	563.09443	-818.50017	-182.68946	894.83916	-496.12197	-365.74156	932.49953	-554.70737	-199.73111	884.96826	-742.13272	-376.47392	929.60989	-663.93546	-79.69391	1406.19246	-634.09833	-21.18853	1358.36312	-483.06501	-26.33942	1350.60437	-782.88432	23.70336	1291.01905	-598.02421	23.70954	1285.85017	-658.65156	28.04114	1311.31878	-356.72210	95.36123	1159.64573	-222.97295	64.05159	1237.32217	-185.82353	192.55306	1321.71476	-256.80776	240.34430	1364.31514	-320.63183	264.91607	1354.01284	-283.13118	11.03955	1297.76827	-890.09610	158.27946	1102.23934	-942.95264	155.85981	1170.41405	-997.17645	209.27911	1217.00684	-962.67403	326.97349	1291.17764	-862.65180	356.91332	1270.88385	-883.72340	-280.34025	791.07231	-505.04969	-297.81962	789.90731	-711.26780	-253.56687	821.28709	-521.98367	-269.48888	816.99991	-684.03335	
149	1.48000000	-17.28382	474.80172	-437.45787	-6.05286	366.56023	-447.82178	-263.13770	143.97218	-459.11705	-363.75710	111.32823	-508.96907	-180.92039	53.13259	-408.65660	-113.81911	68.97877	-468.74953	-24.73031	480.54711	-802.59153	-39.47502	396.36246	-821.19774	-241.99515	132.90886	-761.88627	-338.85995	91.72191	-701.07596	-154.06510	50.63074	-795.02761	-87.89858	68.91145	-734.29104	-80.25076	282.43037	-425.40672	-47.74601	413.64714	-406.43189	-133.26973	339.87219	-393.73436	-114.50176	445.10162	-812.86209	-169.32248	336.00683	-802.88014	-137.00712	776.19919	-433.83933	-68.19930	693.91624	-438.33217	-92.24178	641.23165	-401.38438	-221.26669	703.11722	-425.79012	-141.67482	619.88339	-420.24501	-129.06508	754.89178	-802.18860	-34.29565	650.49010	-799.57826	-209.11270	681.53266	-821.11511	-120.44572	576.89924	-818.82728	-175.07080	917.19937	-496.85507	-358.40019	955.58600	-554.17722	-193.38295	907.41805	-742.87897	-369.52751	952.80438	-663.58427	-81.11028	1433.21876	-634.37168	-23.51330	1390.41934	-484.85503	-27.81194	1381.20432	-781.10562	24.92395	1320.42471	-597.98310	24.77717	1314.86944	-658.61806	27.58037	1350.36662	-358.26053	103.16339	1207.91276	-219.98614	68.40185	1285.05870	-184.95993	190.93962	1374.24169	-259.88315	236.21539	1416.85899	-325.21431	260.98571	1409.93530	-286.82792	11.41581	1333.41215	-888.04579	168.95604	1146.92005	-945.41727	163.18537	1217.46801	-997.33758	212.17508	1266.11739	-959.97705	321.75347	1347.06138	-857.35162	353.27627	1329.95897	-878.51023	-273.14886	813.80050	-505.24880	-291.77070	812.78530	-711.36814	-246.50989	843.80696	-522.52821	-262.99179	839.68597	-684.59265	
150	1.49000000	-25.62745	487.66470	-436.26046	-12.02531	379.96538	-446.35668	-260.64058	147.76289	-458.98257	-361.13064	117.36090	-509.09185	-180.02890	54.13645	-408.73244	-112.54743	68.96700	-468.36364	-34.70496	491.33136	-804.01156	-47.22921	406.36495	-823.02484	-240.24278	136.38177	-762.13122	-336.90702	96.97160	-701.23116	-153.33580	51.24273	-795.14156	-86.88421	68.76412	-734.55104	-83.19079	293.47694	-423.56609	-55.62431	425.84010	-405.28808	-138.62517	349.41664	-393.08050	-123.44781	452.90547	-813.71612	-175.09465	342.21208	-803.44159	-131.71840	794.55281	-434.45144	-66.72356	709.26183	-438.23232	-93.26625	657.85614	-401.35513	-219.17010	725.61252	-425.34463	-143.51553	638.37159	-420.58634	-126.06896	770.31073	-804.67279	-36.49094	661.38154	-802.13688	-209.89086	700.49045	-821.32719	-126.42993	591.65058	-818.53462	-167.07658	941.15802	-497.74945	-350.47853	979.80951	-554.07698	-185.98083	931.06006	-743.80072	-361.66766	977.16711	-663.64352	-83.21846	1462.06858	-634.46562	-26.47421	1423.79243	-486.91689	-30.62802	1413.37096	-778.83434	25.92907	1351.60112	-598.97933	25.33958	1345.95119	-658.47082	26.53670	1389.85502	-360.52906	108.27612	1255.14637	-218.45306	71.25158	1332.09797	-185.18508	188.76773	1424.48438	-263.66619	232.49076	1466.60402	-330.20399	257.02385	1462.64787	-291.30671	10.22525	1370.56352	-885.84841	175.29439	1191.88103	-947.47963	166.51354	1264.08772	-997.59542	211.69541	1314.19908	-957.10989	314.55383	1399.41959	-852.28849	347.01264	1385.33855	-873.92584	-265.28593	837.92074	-505.61316	-284.63748	836.81248	-711.66426	-238.82067	867.50803	-523.46736	-255.37665	863.59782	-685.58592	
